<svg width="233" height="38" viewBox="0 0 233 38" fill="none" xmlns="http://www.w3.org/2000/svg">
<path d="M69.7656 15.8438L67.3594 15.75C65.9531 15.75 64.6094 16.5208 63.3281 18.0625V28.0469C63.3281 28.3281 63.2344 28.5573 63.0469 28.7344C62.8698 28.9115 62.6458 29 62.375 29H58.875C58.5938 29 58.3646 28.9115 58.1875 28.7344C58.0104 28.5573 57.9219 28.3281 57.9219 28.0469V12.8438C57.9219 12.5625 58.0104 12.3333 58.1875 12.1562C58.375 11.9688 58.6042 11.875 58.875 11.875H62.375C62.6562 11.875 62.8854 11.9688 63.0625 12.1562C63.2396 12.3333 63.3281 12.5625 63.3281 12.8438V13.8281C64.3906 13.0573 65.4115 12.4896 66.3906 12.125C67.3802 11.75 68.6719 11.5625 70.2656 11.5625C70.5469 11.5625 70.776 11.6562 70.9531 11.8438C71.1406 12.0208 71.2344 12.2448 71.2344 12.5156V14.8906C71.2344 15.1719 71.1406 15.401 70.9531 15.5781C70.776 15.7552 70.5469 15.8438 70.2656 15.8438H69.7656ZM74.7656 27.0312C73.1615 25.5104 72.3594 23.3229 72.3594 20.4688C72.3594 17.6042 73.1667 15.4062 74.7812 13.875C76.3958 12.3333 78.6354 11.5625 81.5 11.5625C84.3646 11.5625 86.599 12.3125 88.2031 13.8125C89.8073 15.3021 90.6094 17.4427 90.6094 20.2344V21.125C90.6094 21.4062 90.5156 21.6406 90.3281 21.8281C90.151 22.0052 89.9219 22.0938 89.6406 22.0938H77.875C77.9792 23.375 78.3438 24.3073 78.9688 24.8906C79.6042 25.474 80.6146 25.7656 82 25.7656C83.3854 25.7656 84.3333 25.4531 84.8438 24.8281C85.3542 24.2031 85.9844 23.8854 86.7344 23.875H89.0625C89.3438 23.875 89.5729 23.9688 89.75 24.1562C89.9375 24.3333 90.0312 24.5625 90.0312 24.8438C90.0312 27.8333 87.1823 29.3229 81.4844 29.3125C78.6094 29.3125 76.3698 28.5521 74.7656 27.0312ZM77.8438 18.7969H85.1094C85.0052 16.3385 83.7969 15.1094 81.4844 15.1094C79.1823 15.1094 77.9688 16.3385 77.8438 18.7969ZM106.031 10.25L103.875 9.98438C101.802 9.98438 100.453 10.2656 99.8281 10.8281C99.2031 11.3802 98.8906 12.5312 98.8906 14.2812V14.5312H104.547C104.828 14.5312 105.057 14.625 105.234 14.8125C105.422 14.9896 105.516 15.2188 105.516 15.5V17.3594C105.516 17.6406 105.422 17.8698 105.234 18.0469C105.057 18.224 104.828 18.3125 104.547 18.3125H98.8906V28.0469C98.8906 28.3281 98.7969 28.5573 98.6094 28.7344C98.4323 28.9115 98.2083 29 97.9375 29H94.4375C94.1562 29 93.9271 28.9115 93.75 28.7344C93.5729 28.5573 93.4844 28.3281 93.4844 28.0469V14.2812C93.4844 11.375 94.1458 9.31771 95.4688 8.10938C96.7917 6.89062 99.1146 6.28125 102.438 6.28125C104.146 6.28125 105.339 6.34375 106.016 6.46875C106.693 6.59375 107.12 6.75 107.297 6.9375C107.474 7.11458 107.562 7.32292 107.562 7.5625V9.28125C107.562 9.5625 107.469 9.79688 107.281 9.98438C107.104 10.1615 106.88 10.25 106.609 10.25H106.031ZM120.703 15.8438L118.297 15.75C116.891 15.75 115.547 16.5208 114.266 18.0625V28.0469C114.266 28.3281 114.172 28.5573 113.984 28.7344C113.807 28.9115 113.583 29 113.312 29H109.812C109.531 29 109.302 28.9115 109.125 28.7344C108.948 28.5573 108.859 28.3281 108.859 28.0469V12.8438C108.859 12.5625 108.948 12.3333 109.125 12.1562C109.312 11.9688 109.542 11.875 109.812 11.875H113.312C113.594 11.875 113.823 11.9688 114 12.1562C114.177 12.3333 114.266 12.5625 114.266 12.8438V13.8281C115.328 13.0573 116.349 12.4896 117.328 12.125C118.318 11.75 119.609 11.5625 121.203 11.5625C121.484 11.5625 121.714 11.6562 121.891 11.8438C122.078 12.0208 122.172 12.2448 122.172 12.5156V14.8906C122.172 15.1719 122.078 15.401 121.891 15.5781C121.714 15.7552 121.484 15.8438 121.203 15.8438H120.703ZM125.703 27.0312C124.099 25.5104 123.297 23.3229 123.297 20.4688C123.297 17.6042 124.104 15.4062 125.719 13.875C127.333 12.3333 129.573 11.5625 132.438 11.5625C135.302 11.5625 137.536 12.3125 139.141 13.8125C140.745 15.3021 141.547 17.4427 141.547 20.2344V21.125C141.547 21.4062 141.453 21.6406 141.266 21.8281C141.089 22.0052 140.859 22.0938 140.578 22.0938H128.812C128.917 23.375 129.281 24.3073 129.906 24.8906C130.542 25.474 131.552 25.7656 132.938 25.7656C134.323 25.7656 135.271 25.4531 135.781 24.8281C136.292 24.2031 136.922 23.8854 137.672 23.875H140C140.281 23.875 140.51 23.9688 140.688 24.1562C140.875 24.3333 140.969 24.5625 140.969 24.8438C140.969 27.8333 138.12 29.3229 132.422 29.3125C129.547 29.3125 127.307 28.5521 125.703 27.0312ZM128.781 18.7969H136.047C135.943 16.3385 134.734 15.1094 132.422 15.1094C130.12 15.1094 128.906 16.3385 128.781 18.7969ZM143.453 16.6094C143.453 13.2448 146.167 11.5625 151.594 11.5625C157.302 11.5625 160.156 13.0573 160.156 16.0469C160.156 16.3177 160.068 16.5469 159.891 16.7344C159.714 16.9115 159.484 17 159.203 17H156.875C156.125 17 155.495 16.6875 154.984 16.0625C154.474 15.4271 153.469 15.1094 151.969 15.1094C149.906 15.1094 148.875 15.6094 148.875 16.6094C148.875 17.0781 149.276 17.4688 150.078 17.7812C150.891 18.0938 151.875 18.3698 153.031 18.6094C154.198 18.8385 155.359 19.1354 156.516 19.5C157.672 19.8646 158.651 20.4479 159.453 21.25C160.266 22.0417 160.672 23.0469 160.672 24.2656C160.672 27.6302 157.807 29.3125 152.078 29.3125C146.349 29.3125 143.484 27.8229 143.484 24.8438C143.484 24.5625 143.573 24.3333 143.75 24.1562C143.938 23.9688 144.172 23.875 144.453 23.875H146.781C147.531 23.875 148.161 24.1927 148.672 24.8281C149.182 25.4531 150.188 25.7656 151.688 25.7656C154.073 25.7656 155.266 25.2656 155.266 24.2656C155.266 23.7969 154.859 23.4062 154.047 23.0938C153.245 22.7812 152.26 22.5052 151.094 22.2656C149.927 22.0156 148.766 21.7135 147.609 21.3594C146.464 20.9948 145.484 20.4115 144.672 19.6094C143.859 18.8073 143.453 17.8073 143.453 16.6094ZM163.578 28.0469V7.5625C163.578 7.28125 163.667 7.05208 163.844 6.875C164.031 6.6875 164.26 6.59375 164.531 6.59375H168.031C168.302 6.59375 168.526 6.6875 168.703 6.875C168.891 7.05208 168.984 7.28125 168.984 7.5625V13.8281C170.776 12.3177 172.682 11.5625 174.703 11.5625C176.734 11.5625 178.385 12.1823 179.656 13.4219C180.927 14.651 181.562 16.5365 181.562 19.0781V28.0469C181.562 28.3177 181.469 28.5469 181.281 28.7344C181.104 28.9115 180.875 29 180.594 29H177.109C176.839 29 176.609 28.9115 176.422 28.7344C176.245 28.5469 176.156 28.3177 176.156 28.0469V19.0781C176.156 16.5885 175.161 15.3438 173.172 15.3438C171.87 15.3438 170.474 16.0885 168.984 17.5781V28.0469C168.984 28.3177 168.891 28.5469 168.703 28.7344C168.526 28.9115 168.302 29 168.031 29H164.531C164.26 29 164.031 28.9115 163.844 28.7344C163.667 28.5469 163.578 28.3177 163.578 28.0469Z" fill="white"/>
<path d="M30.9375 2.41406L31.2188 8.25C28.3359 4.875 22.4297 2.0625 18 2.0625H17.9297C9.42188 2.0625 2.32031 8.17969 0.84375 16.2656C0.84375 16.3359 0.84375 16.4062 0.84375 16.4062C0.84375 16.8984 1.19531 17.25 1.6875 17.25H5.13281C5.48438 17.25 5.83594 16.9688 5.90625 16.6172C7.17188 11.4141 12.5859 7.19531 17.9297 7.19531C21.5859 7.19531 26.1562 9.58594 28.1953 12.6094L21.0938 12.2578H21.0234C20.6016 12.2578 20.1797 12.6797 20.1797 13.1016V16.4766C20.1797 16.8984 20.6016 17.3203 21.0234 17.3203H35.1562C35.5781 17.3203 36 16.8984 36 16.4766V2.34375C36 1.92188 35.5781 1.5 35.1562 1.5H31.7812C31.3594 1.57031 30.9375 1.92188 30.9375 2.34375C30.9375 2.41406 30.9375 2.41406 30.9375 2.41406ZM17.9297 31.875C14.2734 31.875 9.70312 29.4844 7.66406 26.4609L14.8359 26.8125H14.9062C15.3281 26.8125 15.75 26.3906 15.75 25.9688V22.5938C15.75 22.1719 15.3281 21.75 14.9062 21.75H0.84375C0.351562 21.75 0 22.1719 0 22.5938V36.6562C0 37.1484 0.351562 37.5 0.84375 37.5H4.14844C4.57031 37.5 4.99219 37.1484 4.99219 36.6562L4.71094 30.8203C7.59375 34.1953 13.5 36.9375 17.9297 36.9375C26.4375 36.9375 33.5391 30.8906 35.0859 22.8047C35.0859 22.7344 35.0859 22.6641 35.0859 22.5938C35.0859 22.1719 34.7344 21.75 34.2422 21.75H30.7969C30.4453 21.8203 30.0938 22.1016 29.9531 22.4531C28.6875 27.6562 23.3438 31.875 17.9297 31.875Z" fill="white"/>
<path d="M190.75 14H196.227C198.756 14 200.318 12.6193 200.318 10.7045C200.318 9.0625 199.108 7.98864 197.614 7.93182V7.81818C198.96 7.55114 199.864 6.55682 199.864 5.27273C199.864 3.5 198.455 2.36364 195.795 2.36364H190.75V14ZM193.909 11.4773V9.02273H195.432C196.392 9.02273 196.977 9.47727 196.977 10.2955C196.977 11.0739 196.449 11.4773 195.386 11.4773H193.909ZM193.909 7.06818V4.84091H195.25C196.034 4.84091 196.614 5.23864 196.614 5.95455C196.614 6.67045 196.034 7.06818 195.205 7.06818H193.909ZM201.438 14H209.801V11.4545H204.597V9.45455H209.392V6.90909H204.597V4.90909H209.824V2.36364H201.438V14ZM211.072 4.90909H214.572V14H217.686V4.90909H221.186V2.36364H211.072V4.90909ZM223.913 14L224.584 11.7727H228.425L229.095 14H232.504L228.663 2.36364H224.345L220.504 14H223.913ZM225.3 9.40909L226.459 5.56818H226.55L227.709 9.40909H225.3Z" fill="url(#paint0_linear)"/>
<defs>
<linearGradient id="paint0_linear" x1="191.548" y1="0.17734" x2="192.915" y2="18.5676" gradientUnits="userSpaceOnUse">
<stop stop-color="#10DA61"/>
<stop offset="1" stop-color="#0DD2A3"/>
</linearGradient>
</defs>
</svg>
